<?xml version="1.0" encoding="utf-8"?>
<!-- Generator: Adobe Illustrator 19.1.0, SVG Export Plug-In . SVG Version: 6.00 Build 0)  -->
<svg version="1.1" xmlns="http://www.w3.org/2000/svg" xmlns:xlink="http://www.w3.org/1999/xlink" x="0px" y="0px"
	 viewBox="0 0 464 163.5" style="enable-background:new 0 0 464 163.5;" xml:space="preserve">
<style type="text/css">
	.st0{fill:#417CBF;}
	.st1{fill:#E83E38;}
	.st2{fill:#FAB611;}
	.st3{fill:#0DA750;}
</style>
<g id="M">
	<g>
		<path class="st0" d="M9.2,123.5V30.4h28.1l16.9,63.5l16.7-63.5h28.2v93.1H81.6V50.2l-18.5,73.3H45.1L26.7,50.2v73.3H9.2z"/>
	</g>
</g>
<g id="Red_O">
	<path class="st1" d="M145.3,45.2c-21.7,0-39.3,17.6-39.3,39.3c0,21.7,17.6,39.3,39.3,39.3s39.3-17.6,39.3-39.3
		C184.7,62.8,167.1,45.2,145.3,45.2z M145.3,108.8c-13.4,0-24.3-10.9-24.3-24.3c0-13.4,10.9-24.3,24.3-24.3
		c13.4,0,24.3,10.9,24.3,24.3C169.7,97.9,158.7,108.8,145.3,108.8z"/>
	<path class="st2" d="M229.8,46.5c-21.7,0-39.3,17.6-39.3,39.3c0,21.7,17.6,39.3,39.3,39.3s39.3-17.6,39.3-39.3
		C269.2,64.1,251.5,46.5,229.8,46.5z M229.8,110.2c-13.4,0-24.3-10.9-24.3-24.3c0-13.4,10.9-24.3,24.3-24.3
		c13.4,0,24.3,10.9,24.3,24.3C254.2,99.2,243.2,110.2,229.8,110.2z"/>
	<path class="st0" d="M349,48.8h-13.8v4.6c-6.3-4.4-14-7-22.3-7c-21.7,0-39.3,17.6-39.3,39.3c0,21.7,17.6,39.3,39.3,39.3
		c8.2,0,15.8-2.5,22.1-6.8c-0.3,4.2,0.1,24.3-22.7,24.6c-14.2,0.2-20.8-15.6-20.8-15.6l-14.8,8.8c0,0,12.5,19.7,27.3,21
		c15.1,1.4,29.6-3.2,36-10c7.8-8.3,8.3-17.1,9-23.3C351.1,105.2,349,48.8,349,48.8z M312.8,110.2c-13.4,0-22.3-10.9-22.3-24.3
		c0-13.4,8.9-24.3,22.3-24.3c13.4,0,22.3,10.9,22.3,24.3C335.2,99.2,326.2,110.2,312.8,110.2z"/>
</g>
<g id="E">
	<path class="st2" d="M420.6,110.2c-9,0-16.8-4.9-21-12.1L444,79.3l13.8-6.1c-5.3-15.5-19.9-26.7-37.2-26.7
		c-21.7,0-39.3,17.6-39.3,39.3c0,21.7,17.6,39.3,39.3,39.3c16,0,29.7-9.5,35.9-23.2l-15.2-3.4C437,105.5,429.3,110.2,420.6,110.2z
		 M420.6,61.5c5.9,0,11.3,2.1,15.5,5.6l-39.8,17.7C396.8,71.9,407.5,61.5,420.6,61.5z"/>
	<rect x="359.7" y="8.3" class="st3" width="15.5" height="111"/>
</g>
</svg>
